<svg width="1200" height="630" viewBox="0 0 1200 630" fill="none" xmlns="http://www.w3.org/2000/svg">
  <defs>
    <linearGradient id="bg" x1="0" y1="0" x2="1200" y2="630" gradientUnits="userSpaceOnUse">
      <stop offset="0" stop-color="#0F172A"/>
      <stop offset="1" stop-color="#1E293B"/>
    </linearGradient>
    <linearGradient id="card" x1="220" y1="120" x2="980" y2="520" gradientUnits="userSpaceOnUse">
      <stop offset="0" stop-color="#111827"/>
      <stop offset="1" stop-color="#1F2937"/>
    </linearGradient>
    <linearGradient id="bar" x1="0" y1="0" x2="0" y2="1">
      <stop offset="0" stop-color="#22C55E"/>
      <stop offset="1" stop-color="#16A34A"/>
    </linearGradient>
    <linearGradient id="line" x1="0" y1="0" x2="1" y2="1">
      <stop offset="0" stop-color="#60A5FA"/>
      <stop offset="1" stop-color="#3B82F6"/>
    </linearGradient>
  </defs>

  <rect width="1200" height="630" fill="url(#bg)"/>
  <circle cx="1080" cy="90" r="150" fill="#334155" fill-opacity="0.24"/>
  <circle cx="120" cy="560" r="180" fill="#1D4ED8" fill-opacity="0.18"/>

  <rect x="180" y="105" width="840" height="420" rx="24" fill="url(#card)" stroke="#334155" stroke-width="2"/>

  <text x="235" y="170" fill="#E2E8F0" font-family="Segoe UI, sans-serif" font-size="36" font-weight="700">
    Personal Expense Tracker
  </text>
  <text x="235" y="206" fill="#94A3B8" font-family="Segoe UI, sans-serif" font-size="19">
    Production-hardened full-stack finance dashboard
  </text>

  <rect x="235" y="245" width="730" height="240" rx="14" fill="#0B1220" stroke="#1E293B"/>
  <line x1="270" y1="430" x2="915" y2="430" stroke="#334155" stroke-width="2"/>
  <line x1="270" y1="390" x2="915" y2="390" stroke="#253041" stroke-width="1"/>
  <line x1="270" y1="350" x2="915" y2="350" stroke="#253041" stroke-width="1"/>
  <line x1="270" y1="310" x2="915" y2="310" stroke="#253041" stroke-width="1"/>

  <rect x="300" y="360" width="48" height="70" rx="8" fill="url(#bar)"/>
  <rect x="390" y="325" width="48" height="105" rx="8" fill="url(#bar)"/>
  <rect x="480" y="300" width="48" height="130" rx="8" fill="url(#bar)"/>
  <rect x="570" y="340" width="48" height="90" rx="8" fill="url(#bar)"/>
  <rect x="660" y="275" width="48" height="155" rx="8" fill="url(#bar)"/>

  <polyline
    points="302,342 414,296 504,314 594,286 684,256 774,278 864,242"
    fill="none"
    stroke="url(#line)"
    stroke-width="6"
    stroke-linecap="round"
    stroke-linejoin="round"
  />
  <circle cx="684" cy="256" r="7" fill="#60A5FA"/>
  <circle cx="864" cy="242" r="8" fill="#3B82F6"/>

  <rect x="760" y="142" width="205" height="52" rx="12" fill="#0F172A" stroke="#1E293B"/>
  <text x="780" y="174" fill="#22C55E" font-family="Segoe UI, sans-serif" font-size="22" font-weight="700">
    +18.4% Savings
  </text>
</svg>
